<?xml version="1.0" encoding="utf-8"?><!-- Uploaded to: SVG Repo, www.svgrepo.com, Generator: SVG Repo Mixer Tools -->
<svg fill="#000000" width="800px" height="800px" viewBox="0 0 24 24" id="orange" data-name="Line Color" xmlns="http://www.w3.org/2000/svg" class="icon line-color"><path id="primary" d="M19,14A7,7,0,1,1,6.62,9.53,2.32,2.32,0,0,0,8.4,10c1.94-.4,3.6-3,3.6-3A7,7,0,0,1,19,14Z" style="fill: none; stroke: rgb(0, 0, 0); stroke-linecap: round; stroke-linejoin: round; stroke-width: 2;"></path><path id="secondary" d="M14,3a5.11,5.11,0,0,0-2,4" style="fill: none; stroke: rgb(44, 169, 188); stroke-linecap: round; stroke-linejoin: round; stroke-width: 2;"></path><path id="secondary-2" data-name="secondary" d="M8.6,5.05C6.66,5.45,5,7.74,5,7.74S6.47,10.36,8.4,10,12,7,12,7,10.53,4.64,8.6,5.05Z" style="fill: none; stroke: rgb(44, 169, 188); stroke-linecap: round; stroke-linejoin: round; stroke-width: 2;"></path></svg>